# Blender v2.83.1 OBJ File: ''
# www.blender.org
mtllib Hoverboard.mtl
o hoverBoard
v -2.449511 -0.376879 1.029379
v -2.050489 -0.376879 1.029379
v -2.449511 -0.376879 -1.072623
v -2.050489 -0.376879 -1.072623
v -1.324511 -0.376879 1.029379
v -0.925489 -0.376879 1.029379
v -1.324511 -0.376879 -1.072623
v -0.925489 -0.376879 -1.072623
v -0.199511 -0.376879 1.029379
v 0.199511 -0.376879 1.029379
v -0.199511 -0.376879 -1.072623
v 0.199511 -0.376879 -1.072623
v 0.925489 -0.376879 1.029379
v 1.324511 -0.376879 1.029379
v 0.925489 -0.376879 -1.072623
v 1.324511 -0.376879 -1.072623
v 2.050361 -0.376879 1.029379
v 2.449383 -0.376879 1.029379
v 2.050361 -0.376879 -1.072623
v 2.449383 -0.376879 -1.072623
v -2.249872 -0.349436 1.358512
v -3.812049 -0.060082 1.358512
v -3.175461 0.109894 1.124804
v -2.249872 -0.349436 -0.021622
v -3.108957 -0.275260 -0.021622
v -3.812387 -0.056260 -0.021622
v -3.427153 0.270574 0.981339
v -4.082758 0.108893 1.176455
v -3.607653 0.378589 -0.685820
v -3.108957 -0.275259 -1.401756
v -3.812049 -0.060082 -1.401756
v 4.285562 0.226636 0.792433
v 3.812049 -0.060082 1.358512
v 3.175461 0.109894 1.124804
v 3.812387 -0.056260 -0.021622
v 3.174899 0.112847 -0.021622
v 2.249872 -0.016471 -0.021622
v 2.249872 -0.016471 -1.168048
v 3.108957 -0.275259 -1.401756
v 2.765296 0.021057 -1.168048
v 3.175461 0.109894 -1.168048
v 4.082758 0.108893 -1.219699
v -2.249872 -0.016471 1.124804
v -2.765296 0.021057 1.124804
v -4.285562 0.226636 0.792433
v -3.108957 -0.275260 1.358512
v -3.607653 0.378589 0.642576
v -2.249872 -0.016471 -1.168048
v -2.765296 0.021057 -1.168048
v -4.285562 0.226636 -0.835677
v -3.175461 0.109894 -1.168048
v -2.249872 -0.349436 -1.401756
v 0.000000 -0.349436 -1.401756
v -4.082758 0.108893 -1.219699
v -3.427153 0.270574 -1.024583
v 2.249872 -0.016471 1.124804
v 2.765296 0.021057 1.124804
v 4.334189 0.256973 -0.021622
v 2.249872 -0.349436 1.358512
v 3.108957 -0.275260 1.358512
v 4.082758 0.108893 1.176455
v 3.686275 0.426949 -0.021622
v 3.607653 0.378589 0.642576
v 3.427153 0.270574 0.981339
v 4.285562 0.226636 -0.835677
v 2.249872 -0.349436 -1.401756
v 3.812049 -0.060082 -1.401756
v 3.607653 0.378589 -0.685820
v 3.427153 0.270574 -1.024583
v -2.249872 -0.016471 -0.021622
v -4.334189 0.256973 -0.021622
v -2.765296 0.021057 -0.021622
v -3.174899 0.112847 -0.021622
v -3.686275 0.426949 -0.021622
v 0.000000 -0.016471 1.124804
v 0.000000 -0.016471 -0.021622
v 0.000000 -0.349436 -0.021622
v 0.000000 -0.349436 1.358511
v 0.000000 -0.016471 -1.168048
v 2.765296 0.021057 -0.021622
v 2.249872 -0.349436 -0.021622
v 3.108957 -0.275260 -0.021622
vt 0.849341 0.465541
vt 0.847461 0.455258
vt 0.847461 0.460377
vt 0.847461 0.455258
vt 0.847461 0.460377
vt 0.847461 0.455258
vt 0.849341 0.465541
vt 0.847461 0.455258
vt 0.750886 0.355455
vt 0.754310 0.359209
vt 0.754310 0.355455
vt 0.750887 0.359209
vt 0.750886 0.355455
vt 0.754310 0.359209
vt 0.754310 0.355455
vt 0.750887 0.359209
vt 0.750886 0.355455
vt 0.754310 0.359209
vt 0.754310 0.355455
vt 0.750887 0.359209
vt 0.750886 0.355455
vt 0.754310 0.359209
vt 0.754310 0.355455
vt 0.750887 0.359209
vt 0.750886 0.355455
vt 0.754310 0.359209
vt 0.754310 0.355455
vt 0.750887 0.359209
vt 0.813452 0.229657
vt 0.840711 0.223335
vt 0.813452 0.223335
vt 0.840711 0.229657
vt 0.840711 0.232071
vt 0.803613 0.533660
vt 0.827424 0.577093
vt 0.803613 0.577093
vt 0.827424 0.533660
vt 0.803613 0.522573
vt 0.827424 0.522573
vt 0.827424 0.511162
vt 0.840711 0.238276
vt 0.813452 0.240972
vt 0.840711 0.240972
vt 0.813452 0.238276
vt 0.840711 0.237448
vt 0.813452 0.237448
vt 0.840711 0.235633
vt 0.813452 0.235633
vt 0.813452 0.232071
vt 0.848618 0.450353
vt 0.849341 0.449996
vt 0.851347 0.466856
vt 0.851347 0.448649
vt 0.853346 0.468213
vt 0.853346 0.447322
vt 0.858054 0.469002
vt 0.858054 0.446633
vt 0.803613 0.511162
vt 0.824925 0.504626
vt 0.816179 0.499079
vt 0.803613 0.497196
vt 0.813452 0.229657
vt 0.840711 0.229657
vt 0.840711 0.232071
vt 0.840711 0.223335
vt 0.813452 0.223335
vt 0.827424 0.522573
vt 0.827424 0.511162
vt 0.827424 0.533660
vt 0.827424 0.577093
vt 0.813452 0.232071
vt 0.813452 0.235633
vt 0.840711 0.235633
vt 0.813452 0.237448
vt 0.840711 0.237448
vt 0.813452 0.238276
vt 0.840711 0.238276
vt 0.848618 0.450353
vt 0.849341 0.449996
vt 0.851347 0.448649
vt 0.853346 0.447322
vt 0.858054 0.446633
vt 0.816179 0.499079
vt 0.824925 0.504626
vt 0.813452 0.229657
vt 0.840711 0.229657
vt 0.840711 0.232071
vt 0.803613 0.522573
vt 0.827424 0.522573
vt 0.827424 0.511162
vt 0.827424 0.533660
vt 0.803613 0.533660
vt 0.813452 0.232071
vt 0.813452 0.235633
vt 0.840711 0.235633
vt 0.813452 0.237448
vt 0.840711 0.237448
vt 0.813452 0.238276
vt 0.840711 0.238276
vt 0.813452 0.240972
vt 0.840711 0.240972
vt 0.848618 0.450353
vt 0.849341 0.449996
vt 0.851347 0.466856
vt 0.851347 0.448649
vt 0.853346 0.468213
vt 0.853346 0.447322
vt 0.803613 0.511162
vt 0.816179 0.499079
vt 0.803613 0.497196
vt 0.824925 0.504626
vt 0.813452 0.229657
vt 0.840711 0.229657
vt 0.840711 0.232071
vt 0.827424 0.533660
vt 0.827424 0.522573
vt 0.827424 0.511162
vt 0.840711 0.238276
vt 0.813452 0.238276
vt 0.840711 0.237448
vt 0.813452 0.237448
vt 0.840711 0.235633
vt 0.813452 0.235633
vt 0.813452 0.232071
vt 0.848618 0.450353
vt 0.849341 0.449996
vt 0.851347 0.448649
vt 0.853346 0.447322
vt 0.824925 0.504626
vt 0.816179 0.499079
vn -0.4094 -0.9123 0.0000
vn -0.9370 0.1776 0.3007
vn -0.9875 0.1571 0.0000
vn -0.9370 0.1776 -0.3007
vn 0.9875 0.1571 0.0000
vn 0.9370 0.1776 0.3007
vn 0.4094 -0.9123 0.0000
vn 0.9370 0.1776 -0.3007
vn 0.0000 -1.0000 0.0000
vn 0.0341 0.8849 0.4644
vn 0.0000 -0.4612 0.8873
vn 0.0000 0.8873 0.4612
vn -0.0212 -0.4793 0.8774
vn -0.0907 -0.5053 0.8581
vn 0.0363 0.9993 0.0000
vn 0.0000 1.0000 0.0000
vn 0.1452 0.9894 0.0000
vn 0.1162 0.8748 0.4702
vn 0.2412 0.8212 0.5171
vn 0.1290 0.9916 0.0000
vn 0.1510 0.9790 0.1367
vn -0.7592 0.0708 0.6470
vn 0.2342 0.9067 0.3508
vn -0.4019 -0.2780 0.8724
vn -0.1920 -0.9814 0.0000
vn -0.0430 -0.9991 0.0000
vn 0.3770 0.9262 0.0000
vn 0.0341 0.8849 -0.4644
vn -0.0212 -0.4793 -0.8774
vn -0.0907 -0.5053 -0.8581
vn 0.0000 -0.4612 -0.8873
vn 0.0000 0.8873 -0.4612
vn 0.1162 0.8748 -0.4702
vn 0.2412 0.8212 -0.5171
vn -0.4019 -0.2780 -0.8724
vn 0.2342 0.9067 -0.3508
vn -0.7592 0.0708 -0.6470
vn 0.1510 0.9790 -0.1367
vn -0.0341 0.8849 0.4644
vn 0.0212 -0.4793 0.8774
vn 0.0907 -0.5053 0.8581
vn -0.1452 0.9894 0.0000
vn -0.1162 0.8748 0.4702
vn -0.2412 0.8212 0.5171
vn -0.0363 0.9993 0.0000
vn 0.4019 -0.2780 0.8724
vn -0.2342 0.9067 0.3508
vn 0.7592 0.0708 0.6470
vn -0.1510 0.9790 0.1367
vn -0.1290 0.9916 0.0000
vn 0.1920 -0.9814 0.0000
vn 0.0430 -0.9991 0.0000
vn -0.3770 0.9262 0.0000
vn -0.0341 0.8849 -0.4644
vn 0.0212 -0.4793 -0.8774
vn 0.0907 -0.5053 -0.8581
vn -0.1162 0.8748 -0.4702
vn -0.2412 0.8212 -0.5171
vn -0.1510 0.9790 -0.1367
vn 0.7592 0.0708 -0.6470
vn -0.2342 0.9067 -0.3508
vn 0.4019 -0.2780 -0.8724
usemtl main
s 1
f 26/1/1 45/2/2 71/3/3
f 71/3/3 50/4/4 26/1/1
f 58/5/5 32/6/6 35/7/7
f 35/7/7 65/8/8 58/5/5
f 4/9/9 1/10/9 3/11/9
f 2/12/9 1/10/9 4/9/9
f 8/13/9 5/14/9 7/15/9
f 6/16/9 5/14/9 8/13/9
f 12/17/9 9/18/9 11/19/9
f 10/20/9 9/18/9 12/17/9
f 16/21/9 13/22/9 15/23/9
f 14/24/9 13/22/9 16/21/9
f 20/25/9 17/26/9 19/27/9
f 18/28/9 17/26/9 20/25/9
f 43/29/10 78/30/11 75/31/12
f 21/32/13 78/30/11 43/29/10
f 46/33/14 21/32/13 43/29/10
f 70/34/15 75/35/12 76/36/16
f 43/37/10 75/35/12 70/34/15
f 72/38/17 43/37/10 70/34/15
f 44/39/18 43/37/10 72/38/17
f 23/40/19 44/39/18 72/38/17
f 45/41/2 74/42/20 71/43/3
f 47/44/21 74/42/20 45/41/2
f 28/45/22 47/44/21 45/41/2
f 27/46/23 47/44/21 28/45/22
f 22/47/24 27/46/23 28/45/22
f 23/48/19 27/46/23 22/47/24
f 46/33/14 23/48/19 22/47/24
f 44/49/18 23/48/19 46/33/14
f 43/29/10 44/49/18 46/33/14
f 26/1/1 28/50/22 45/2/2
f 22/51/24 28/50/22 26/1/1
f 25/52/25 22/51/24 26/1/1
f 46/53/14 22/51/24 25/52/25
f 24/54/26 46/53/14 25/52/25
f 21/55/13 46/53/14 24/54/26
f 77/56/9 21/55/13 24/54/26
f 78/57/11 21/55/13 77/56/9
f 73/58/27 27/59/23 23/40/19
f 47/60/21 27/59/23 73/58/27
f 74/61/20 47/60/21 73/58/27
f 48/62/28 52/63/29 30/64/30
f 53/65/31 52/63/29 48/62/28
f 79/66/32 53/65/31 48/62/28
f 72/38/17 49/67/33 51/68/34
f 48/69/28 49/67/33 72/38/17
f 70/34/15 48/69/28 72/38/17
f 79/70/32 48/69/28 70/34/15
f 76/36/16 79/70/32 70/34/15
f 30/64/30 49/71/33 48/62/28
f 51/72/34 49/71/33 30/64/30
f 31/73/35 51/72/34 30/64/30
f 55/74/36 51/72/34 31/73/35
f 54/75/37 55/74/36 31/73/35
f 29/76/38 55/74/36 54/75/37
f 50/77/4 29/76/38 54/75/37
f 74/42/20 29/76/38 50/77/4
f 71/43/3 74/42/20 50/77/4
f 26/1/1 50/4/4 54/78/37
f 31/79/35 26/1/1 54/78/37
f 25/52/25 26/1/1 31/79/35
f 30/80/30 25/52/25 31/79/35
f 24/54/26 25/52/25 30/80/30
f 52/81/29 24/54/26 30/80/30
f 77/56/9 24/54/26 52/81/29
f 53/82/31 77/56/9 52/81/29
f 73/58/27 29/83/38 74/61/20
f 55/84/36 29/83/38 73/58/27
f 51/68/34 55/84/36 73/58/27
f 56/85/39 59/86/40 60/87/41
f 78/30/11 59/86/40 56/85/39
f 75/31/12 78/30/11 56/85/39
f 80/88/42 57/89/43 34/90/44
f 56/91/39 57/89/43 80/88/42
f 37/92/45 56/91/39 80/88/42
f 75/35/12 56/91/39 37/92/45
f 76/36/16 75/35/12 37/92/45
f 60/87/41 57/93/43 56/85/39
f 34/94/44 57/93/43 60/87/41
f 33/95/46 34/94/44 60/87/41
f 64/96/47 34/94/44 33/95/46
f 61/97/48 64/96/47 33/95/46
f 63/98/49 64/96/47 61/97/48
f 32/99/6 63/98/49 61/97/48
f 62/100/50 63/98/49 32/99/6
f 58/101/5 62/100/50 32/99/6
f 35/7/7 32/6/6 61/102/48
f 33/103/46 35/7/7 61/102/48
f 82/104/51 35/7/7 33/103/46
f 60/105/41 82/104/51 33/103/46
f 81/106/52 82/104/51 60/105/41
f 59/107/40 81/106/52 60/105/41
f 77/56/9 81/106/52 59/107/40
f 78/57/11 77/56/9 59/107/40
f 36/108/53 63/109/49 62/110/50
f 64/111/47 63/109/49 36/108/53
f 34/90/44 64/111/47 36/108/53
f 38/112/54 53/65/31 79/66/32
f 66/113/55 53/65/31 38/112/54
f 39/114/56 66/113/55 38/112/54
f 37/92/45 79/70/32 76/36/16
f 38/115/54 79/70/32 37/92/45
f 80/88/42 38/115/54 37/92/45
f 40/116/57 38/115/54 80/88/42
f 41/117/58 40/116/57 80/88/42
f 65/118/8 62/100/50 58/101/5
f 68/119/59 62/100/50 65/118/8
f 42/120/60 68/119/59 65/118/8
f 69/121/61 68/119/59 42/120/60
f 67/122/62 69/121/61 42/120/60
f 41/123/58 69/121/61 67/122/62
f 39/114/56 41/123/58 67/122/62
f 40/124/57 41/123/58 39/114/56
f 38/112/54 40/124/57 39/114/56
f 35/7/7 42/125/60 65/8/8
f 67/126/62 42/125/60 35/7/7
f 82/104/51 67/126/62 35/7/7
f 39/127/56 67/126/62 82/104/51
f 81/106/52 39/127/56 82/104/51
f 66/128/55 39/127/56 81/106/52
f 77/56/9 66/128/55 81/106/52
f 53/82/31 66/128/55 77/56/9
f 36/108/53 69/129/61 41/117/58
f 68/130/59 69/129/61 36/108/53
f 62/110/50 68/130/59 36/108/53
f 73/58/27 23/40/19 72/38/17
f 72/38/17 51/68/34 73/58/27
f 80/88/42 34/90/44 36/108/53
f 36/108/53 41/117/58 80/88/42
